PathFileType	4	(X/Y/Z)	c:/Users/goper/Files/vsCode/490R/osim_files/A06/A06_Slow_01.trc
DataRate	CameraRate	NumFrames	NumMarkers	Units                	OrigDataRate	OrigDataStartFrame	OrigNumFrames
120.00	120.00	4	36	mm	120.0	1317	1505
                Frame#	Time	LPSIS			LASIS			LTH1			LTH2			LTH3			LTH4			LLFE			LMFE			LSH1			LSH2			LSH3			LSH4			LLMAL			LMMAL			LCAL			LMTP5			LTOE			LMTP1			RPSIS			RASIS			RTH1			RTH2			RTH3			RTH4			RLFE			RMFE			RSH1			RSH2			RSH3			RSH4			RLMAL			RMMAL			RCAL			RMTP1			RTOE			RMTP5		
		X1	Y1	Z1	X2	Y2	Z2	X3	Y3	Z3	X4	Y4	Z4	X5	Y5	Z5	X6	Y6	Z6	X7	Y7	Z7	X8	Y8	Z8	X9	Y9	Z9	X10	Y10	Z10	X11	Y11	Z11	X12	Y12	Z12	X13	Y13	Z13	X14	Y14	Z14	X15	Y15	Z15	X16	Y16	Z16	X17	Y17	Z17	X18	Y18	Z18	X19	Y19	Z19	X20	Y20	Z20	X21	Y21	Z21	X22	Y22	Z22	X23	Y23	Z23	X24	Y24	Z24	X25	Y25	Z25	X26	Y26	Z26	X27	Y27	Z27	X28	Y28	Z28	X29	Y29	Z29	X30	Y30	Z30	X31	Y31	Z31	X32	Y32	Z32	X33	Y33	Z33	X34	Y34	Z34	X35	Y35	Z35	X36	Y36	Z36

1317	10.96667	-3031.87744	999.98804	213.27220	-3220.11157	950.78143	293.74530	-3255.71606	599.41144	334.25595	-3275.62622	563.90204	325.85550	-3312.61499	624.42456	323.19901	-3325.20264	584.64856	319.00815	-3326.72168	506.23056	310.10959	-3328.71289	503.54498	200.65295	-3263.99292	411.95328	320.00543	-3266.27881	365.98822	321.69244	-3324.09814	411.82394	314.53424	-3321.97705	369.51099	316.95605	-3261.18384	112.02121	269.84418	-3287.53784	128.08801	191.76938	-3200.38281	107.60701	212.80428	-3371.04077	55.75427	293.40332	-3415.44165	79.80367	245.36980	-3396.47314	73.34354	204.33514	-3040.48315	1011.40021	81.95746	-3220.08960	966.38751	35.34238	0.00000	0.00000	0.00000	-3061.74902	556.32007	6.81847	-3125.45874	593.08081	12.33194	-3117.36279	549.91229	9.87215	-3076.17871	440.29935	35.63223	-3084.27490	443.51904	124.41916	-3038.53857	288.11935	55.62397	-3034.35962	240.50253	59.18773	-3098.45947	279.37177	61.79373	-3086.04712	232.13652	61.65249	-3014.15210	105.46224	57.65469	-3032.83008	109.01182	139.48329	-2959.18066	86.62947	109.47523	-3163.21460	58.12004	126.69929	-3175.55493	68.52823	83.57157	-3145.34204	54.83226	37.00969
1318	10.97500	-3039.93872	999.41504	213.51332	-3228.42065	949.84229	293.88211	-3263.43237	598.44360	334.15524	-3283.21436	562.88135	325.79736	-3320.15845	623.39618	323.24023	-3333.71387	583.31903	319.64322	-3334.57275	505.27859	309.91382	-3337.10327	502.80087	200.68335	-3276.24780	408.57938	319.84857	-3281.75879	363.50504	322.36032	-3337.15479	411.96851	313.47369	-3335.47803	369.14963	316.73663	-3288.65698	108.80771	270.25305	-3314.88281	126.37707	192.20390	-3228.52856	101.69223	213.00148	-3401.23389	57.98387	294.31226	-3444.71021	83.96162	246.50790	-3426.19214	76.54178	205.36273	-3048.55151	1010.97992	82.25773	-3228.09790	965.64111	35.49665	-3068.91992	598.48663	7.49487	-3067.31958	556.21710	6.83822	-3131.15771	592.71533	11.74692	-3122.39282	549.57263	10.00804	-3080.00317	440.30045	35.65226	-3088.05347	443.45605	124.43916	-3040.75928	288.49533	55.52394	-3036.80713	240.88742	59.32063	-3100.73145	279.24658	61.76092	-3087.85767	232.13609	61.67130	-3014.34009	105.59538	57.62200	-3033.11328	109.11176	139.48587	-2959.08423	86.86615	109.33864	-3164.22021	58.02424	127.25993	-3175.71069	68.34056	83.60698	-3145.45288	54.74297	37.02347
1319	10.98333	-3048.53784	998.62775	213.92953	-3236.84058	948.82269	294.02399	-3270.42969	597.32294	333.68475	-3290.33130	561.52344	325.55228	-3327.44067	621.97125	323.25476	-3340.98804	581.87115	319.77740	-3342.19800	504.26120	309.59271	-3345.14380	501.71268	200.64778	-3288.61621	405.22641	319.83807	-3296.55225	359.78278	321.84564	-3348.35474	412.02731	313.31827	-3349.61523	368.99887	316.88004	-3316.48340	106.56668	270.87555	-3341.91724	125.39626	192.78207	-3256.66504	96.09525	213.75888	-3432.04419	60.59176	294.85330	-3473.21924	88.20860	247.13148	-3455.98755	80.83704	205.24307	-3056.51123	1010.62091	82.61250	-3236.09399	964.84821	35.57775	0.00000	0.00000	0.00000	-3072.75781	556.38080	7.05461	-3136.11597	592.15582	12.45184	-3127.50830	549.23462	10.11947	-3083.85229	440.31198	35.71504	-3091.93628	443.41803	124.50865	-3043.25366	288.90411	55.59964	-3038.99390	241.23836	59.34986	-3102.91675	279.06195	61.84172	-3089.64307	232.01962	61.71241	-3014.52930	105.76760	57.62040	-3033.33960	109.21962	139.47966	-2959.37231	87.01649	109.35863	-3164.42822	58.07669	127.18958	-3175.90234	67.99151	83.67699	-3145.53320	54.65259	37.04649
1320	10.99167	-3056.60400	997.90021	214.39439	-3245.29907	947.68890	294.11179	-3277.59912	595.68054	333.25845	-3297.13916	559.84387	325.21649	-3334.41553	620.17419	323.17157	-3347.98657	580.18073	319.62643	-3349.55078	502.94662	309.12155	-3352.91040	500.40945	200.49069	-3300.79712	401.95270	319.93857	-3311.48193	357.57089	322.83105	-3359.83545	411.69766	313.42908	-3364.28735	369.18707	315.58389	-3343.32031	104.97749	271.49103	-3368.57202	125.14761	193.43219	-3287.00220	91.60166	216.75417	-3460.58203	64.52861	295.40558	-3501.25977	94.00713	247.77612	-3483.69971	85.51392	206.94765	-3064.66260	1010.10449	83.10419	-3244.06104	963.99847	35.63691	0.00000	0.00000	0.00000	-3077.98315	556.68359	6.98599	-3140.79517	592.05762	11.14145	-3132.40942	548.70172	10.19608	-3088.30127	440.34476	35.74683	-3095.84033	443.37671	124.55727	-3045.65649	289.29559	55.58166	-3041.06421	241.47948	59.35048	-3105.12842	278.84689	61.92210	-3091.82812	231.48982	60.51473	-3014.78784	105.95921	57.58783	-3033.54224	109.32517	139.45569	-2959.44995	87.20683	109.32855	-3164.61353	58.11209	127.17500	-3176.06494	67.83815	83.71074	-3146.05835	54.65143	36.78603
